<mxfile host="app.diagrams.net" agent="Mozilla/5.0 (X11; Linux x86_64) AppleWebKit/537.36 (KHTML, like Gecko) Chrome/129.0.0.0 Safari/537.36" version="24.7.16">
  <diagram name="Page-1" id="94QWdV-DJGOyOI1Jb-e2">
    <mxGraphModel dx="1434" dy="755" grid="1" gridSize="10" guides="1" tooltips="1" connect="1" arrows="1" fold="1" page="1" pageScale="1" pageWidth="850" pageHeight="1100" math="0" shadow="0">
      <root>
        <mxCell id="0" />
        <mxCell id="1" parent="0" />
        <mxCell id="l8TAu0WzzpNx2qFTLM6B-7" style="edgeStyle=orthogonalEdgeStyle;rounded=0;orthogonalLoop=1;jettySize=auto;html=1;exitX=1;exitY=0.5;exitDx=0;exitDy=0;entryX=0;entryY=0.5;entryDx=0;entryDy=0;" edge="1" parent="1" source="l8TAu0WzzpNx2qFTLM6B-1" target="l8TAu0WzzpNx2qFTLM6B-5">
          <mxGeometry relative="1" as="geometry" />
        </mxCell>
        <mxCell id="l8TAu0WzzpNx2qFTLM6B-1" value="S0" style="ellipse;whiteSpace=wrap;html=1;aspect=fixed;align=center;verticalAlign=top;" vertex="1" parent="1">
          <mxGeometry x="100" y="90" width="110" height="110" as="geometry" />
        </mxCell>
        <mxCell id="l8TAu0WzzpNx2qFTLM6B-5" value="S0" style="ellipse;whiteSpace=wrap;html=1;aspect=fixed;verticalAlign=top;" vertex="1" parent="1">
          <mxGeometry x="440" y="90" width="110" height="110" as="geometry" />
        </mxCell>
        <mxCell id="l8TAu0WzzpNx2qFTLM6B-8" value="KeyP &amp;amp;&amp;amp; veri=0" style="text;html=1;align=center;verticalAlign=middle;whiteSpace=wrap;rounded=0;" vertex="1" parent="1">
          <mxGeometry x="290" y="100" width="60" height="30" as="geometry" />
        </mxCell>
        <mxCell id="l8TAu0WzzpNx2qFTLM6B-9" value="KeP=0&lt;div&gt;c=0,&lt;/div&gt;&lt;div&gt;veri=0&lt;/div&gt;&lt;div&gt;espera=0&lt;/div&gt;" style="text;html=1;align=center;verticalAlign=middle;whiteSpace=wrap;rounded=0;" vertex="1" parent="1">
          <mxGeometry x="120" y="120" width="65" height="60" as="geometry" />
        </mxCell>
        <mxCell id="l8TAu0WzzpNx2qFTLM6B-10" value="KeP=1&lt;div&gt;c=1,&lt;/div&gt;&lt;div&gt;veri=1&lt;/div&gt;&lt;div&gt;espera=0&lt;/div&gt;" style="text;html=1;align=center;verticalAlign=middle;whiteSpace=wrap;rounded=0;" vertex="1" parent="1">
          <mxGeometry x="462.5" y="120" width="65" height="60" as="geometry" />
        </mxCell>
        <mxCell id="l8TAu0WzzpNx2qFTLM6B-11" value="S0" style="ellipse;whiteSpace=wrap;html=1;aspect=fixed;verticalAlign=top;" vertex="1" parent="1">
          <mxGeometry x="20" y="495" width="110" height="110" as="geometry" />
        </mxCell>
        <mxCell id="l8TAu0WzzpNx2qFTLM6B-12" value="S0" style="ellipse;whiteSpace=wrap;html=1;aspect=fixed;verticalAlign=top;" vertex="1" parent="1">
          <mxGeometry x="40" y="610" width="110" height="110" as="geometry" />
        </mxCell>
        <mxCell id="l8TAu0WzzpNx2qFTLM6B-19" style="edgeStyle=orthogonalEdgeStyle;rounded=0;orthogonalLoop=1;jettySize=auto;html=1;exitX=0;exitY=0.5;exitDx=0;exitDy=0;entryX=1;entryY=0.5;entryDx=0;entryDy=0;" edge="1" parent="1" source="l8TAu0WzzpNx2qFTLM6B-13" target="l8TAu0WzzpNx2qFTLM6B-14">
          <mxGeometry relative="1" as="geometry" />
        </mxCell>
        <mxCell id="l8TAu0WzzpNx2qFTLM6B-13" value="S0" style="ellipse;whiteSpace=wrap;html=1;aspect=fixed;verticalAlign=top;" vertex="1" parent="1">
          <mxGeometry x="450" y="365" width="110" height="110" as="geometry" />
        </mxCell>
        <mxCell id="l8TAu0WzzpNx2qFTLM6B-14" value="S0" style="ellipse;whiteSpace=wrap;html=1;aspect=fixed;verticalAlign=top;" vertex="1" parent="1">
          <mxGeometry x="170" y="365" width="110" height="110" as="geometry" />
        </mxCell>
        <mxCell id="l8TAu0WzzpNx2qFTLM6B-15" value="&lt;div&gt;c=1,&lt;/div&gt;&lt;div&gt;veri=1&lt;/div&gt;&lt;div&gt;espera+=1&lt;/div&gt;" style="text;html=1;align=center;verticalAlign=middle;whiteSpace=wrap;rounded=0;" vertex="1" parent="1">
          <mxGeometry x="472.5" y="390" width="65" height="60" as="geometry" />
        </mxCell>
        <mxCell id="l8TAu0WzzpNx2qFTLM6B-17" style="edgeStyle=orthogonalEdgeStyle;rounded=0;orthogonalLoop=1;jettySize=auto;html=1;entryX=0.409;entryY=0;entryDx=0;entryDy=0;entryPerimeter=0;" edge="1" parent="1" source="l8TAu0WzzpNx2qFTLM6B-5" target="l8TAu0WzzpNx2qFTLM6B-13">
          <mxGeometry relative="1" as="geometry" />
        </mxCell>
        <mxCell id="l8TAu0WzzpNx2qFTLM6B-20" value="espera&amp;lt;54000&lt;div&gt;c=1&lt;/div&gt;" style="text;html=1;align=center;verticalAlign=middle;whiteSpace=wrap;rounded=0;" vertex="1" parent="1">
          <mxGeometry x="330" y="380" width="60" height="30" as="geometry" />
        </mxCell>
      </root>
    </mxGraphModel>
  </diagram>
</mxfile>
